<?xml version="1.0" encoding="UTF-8" standalone="no"?>
<!-- Created with Inkscape (http://www.inkscape.org/) -->

<svg
   width="113.8914mm"
   height="39.996643mm"
   viewBox="0 0 113.8914 39.996643"
   version="1.1"
   id="svg1"
   sodipodi:docname="titlebg.svg"
   inkscape:version="1.4 (86a8ad7, 2024-10-11)"
   xmlns:inkscape="http://www.inkscape.org/namespaces/inkscape"
   xmlns:sodipodi="http://sodipodi.sourceforge.net/DTD/sodipodi-0.dtd"
   xmlns="http://www.w3.org/2000/svg"
   xmlns:svg="http://www.w3.org/2000/svg">
  <sodipodi:namedview
     id="namedview1"
     pagecolor="#ffffff"
     bordercolor="#000000"
     borderopacity="0.25"
     inkscape:showpageshadow="2"
     inkscape:pageopacity="0.0"
     inkscape:pagecheckerboard="0"
     inkscape:deskcolor="#d1d1d1"
     inkscape:document-units="mm"
     showgrid="true"
     inkscape:zoom="2.0334082"
     inkscape:cx="172.86249"
     inkscape:cy="80.898661"
     inkscape:window-width="1920"
     inkscape:window-height="1009"
     inkscape:window-x="-8"
     inkscape:window-y="-8"
     inkscape:window-maximized="1"
     inkscape:current-layer="layer1">
    <inkscape:grid
       id="grid2"
       units="mm"
       originx="-40.002726"
       originy="-49.993849"
       spacingx="0.99999998"
       spacingy="1"
       empcolor="#0099e5"
       empopacity="0.30196078"
       color="#0099e5"
       opacity="0.14901961"
       empspacing="5"
       enabled="true"
       visible="true" />
  </sodipodi:namedview>
  <defs
     id="defs1" />
  <g
     inkscape:label="Layer 1"
     inkscape:groupmode="layer"
     id="layer1"
     transform="translate(-40.002726,-49.993848)">
    <path
       d="M 45.0031,50 A 52.5047,34.906 0 0 0 44.9937,50.09369 52.5047,34.906 0 0 0 97.4986,85 52.5047,34.906 0 0 0 150.003,50.0937 52.5047,34.906 0 0 0 150,50 Z"
       style="fill:#ffd5d5;stroke-width:0.271973"
       id="path1" />
    <path
       id="path53"
       style="fill:#ffd5d5;stroke-width:0.264571"
       d="m 50.002116,49.993848 -9.99939,0.0052 a 4.9997712,4.9997712 0 0 0 4.583183,4.983159 4.9997712,4.9997712 0 0 0 5.399154,-4.565613 4.9997712,4.9997712 0 0 0 0.01705,-0.422713 z m -8.089429,0.0067 1.951302,0.0026 a 0.99999939,0.99999945 5.7293613 0 1 -1.075386,0.775664 0.99999939,0.99999945 5.7293613 0 1 -0.875916,-0.778247 z" />
    <path
       id="path53-7"
       style="fill:#ffd5d5;stroke-width:0.264571"
       d="m 62.122306,64.993814 -9.99939,0.0052 a 4.9997712,4.9997712 0 0 0 4.583183,4.983159 4.9997712,4.9997712 0 0 0 5.399154,-4.565613 4.9997712,4.9997712 0 0 0 0.01705,-0.422713 z m -8.089429,0.0067 1.951302,0.0026 a 0.99999939,0.99999945 5.7293613 0 1 -1.075386,0.775664 0.99999939,0.99999945 5.7293613 0 1 -0.875916,-0.778247 z" />
    <path
       style="fill:#ffd5d5;stroke-width:0.264521"
       d="m 51.621044,57.710669 a 4.9988269,4.9988269 0 1 0 -2.579114,6.582281 4.9988269,4.9988269 0 0 0 2.579114,-6.582281 z m -5.62026,2.431081 a 0.99981058,0.99981052 67.344094 0 1 -0.537507,1.307696 0.99981058,0.99981052 67.344094 0 1 -1.307701,-0.537497 0.99981058,0.99981052 67.344094 0 1 0.537505,-1.307703 0.99981058,0.99981052 67.344094 0 1 1.307703,0.537504 z"
       id="path27" />
    <path
       style="fill:#ffd5d5;stroke-width:0.264539"
       d="m 56.040709,64.546269 a 4.999162,4.999162 0 1 0 -0.06194,7.069732 4.999162,4.999162 0 0 0 0.06194,-7.069732 z m -4.383912,4.275959 a 0.99987762,0.99987756 46.449526 0 1 -0.03577,1.413496 0.99987762,0.99987756 46.449526 0 1 -1.413497,-0.03576 0.99987762,0.99987756 46.449526 0 1 0.03577,-1.413502 0.99987762,0.99987756 46.449526 0 1 1.413502,0.03577 z"
       id="path28" />
    <path
       style="fill:#ffd5d5;stroke-width:0.264547"
       d="m 62.838381,70.401722 a 4.9993228,4.9993228 0 1 0 1.350141,6.940121 4.9993228,4.9993228 0 0 0 -1.350141,-6.940121 z m -3.442562,5.064947 a 0.99990978,0.99990972 34.938628 0 1 0.247023,1.392249 0.99990978,0.99990972 34.938628 0 1 -1.392247,0.247035 0.99990978,0.99990972 34.938628 0 1 -0.24703,-1.392255 0.99990978,0.99990972 34.938628 0 1 1.392254,-0.247029 z"
       id="path29" />
    <path
       style="fill:#ffd5d5;stroke-width:0.264555"
       d="m 70.671591,74.680887 a 4.9994627,4.9994627 0 1 0 2.780446,6.500775 4.9994627,4.9994627 0 0 0 -2.780446,-6.500775 z m -2.299684,5.676131 a 0.99993775,0.99993769 22.790648 0 1 0.534488,1.309127 0.99993775,0.99993769 22.790648 0 1 -1.309123,0.534498 0.99993775,0.99993769 22.790648 0 1 -0.534496,-1.30913 0.99993775,0.99993769 22.790648 0 1 1.309131,-0.534495 z"
       id="path30" />
    <path
       style="fill:#ffd5d5;stroke-width:0.264557"
       d="m 79.421825,77.69942 a 4.9995167,4.9995167 0 1 0 3.700385,6.024881 4.9995167,4.9995167 0 0 0 -3.700385,-6.024881 z m -1.44577,5.951267 a 0.99994857,0.99994851 14.389938 0 1 0.720018,1.217008 0.99994857,0.99994851 14.389938 0 1 -1.217002,0.720028 0.99994857,0.99994851 14.389938 0 1 -0.720026,-1.21701 0.99994857,0.99994851 14.389938 0 1 1.21701,-0.720026 z"
       id="path31" />
    <path
       style="fill:#ffd5d5;stroke-width:0.264559"
       d="m 88.569177,79.448727 a 4.9995466,4.9995466 0 1 0 4.481288,5.469066 4.9995466,4.9995466 0 0 0 -4.481288,-5.469066 z m -0.627567,6.092161 a 0.99995454,0.99995448 6.616732 0 1 0.87801,1.108448 0.99995454,0.99995448 6.616732 0 1 -1.10844,0.878019 0.99995454,0.99995448 6.616732 0 1 -0.878018,-1.108448 0.99995454,0.99995448 6.616732 0 1 1.108448,-0.878019 z"
       id="path32" />
    <path
       style="fill:#ffd5d5;stroke-width:0.264559"
       d="m 97.88586,79.994122 a 4.9995478,4.9995478 0 1 0 5.16195,4.831866 4.9995478,4.9995478 0 0 0 -5.16195,-4.831866 z m 0.1795,6.12177 a 0.99995472,0.99995478 89.055795 0 1 1.016227,0.983281 0.99995472,0.99995478 89.055795 0 1 -0.983273,1.016235 0.99995472,0.99995478 89.055795 0 1 -1.016235,-0.983281 0.99995472,0.99995478 89.055795 0 1 0.983281,-1.016235 z"
       id="path33" />
    <path
       style="fill:#ffd5d5;stroke-width:0.264559"
       d="m 107.19542,79.357428 a 4.9995397,4.9995397 0 1 0 5.75432,4.108567 4.9995397,4.9995397 0 0 0 -5.75432,-4.108567 z m 0.98562,6.044562 a 0.9999531,0.99995316 81.474246 0 1 1.13707,0.840606 0.9999531,0.99995316 81.474246 0 1 -0.84059,1.137079 0.9999531,0.99995316 81.474246 0 1 -1.13708,-0.840605 0.9999531,0.99995316 81.474246 0 1 0.8406,-1.13708 z"
       id="path34" />
    <path
       style="fill:#ffd5d5;stroke-width:0.264557"
       d="m 116.31376,77.508081 a 4.9995102,4.9995102 0 1 0 6.26367,3.279998 4.9995102,4.9995102 0 0 0 -6.26367,-3.279998 z m 1.80579,5.85208 a 0.9999472,0.99994726 73.586535 0 1 1.24167,0.676606 0.9999472,0.99994726 73.586535 0 1 -0.6766,1.241671 0.9999472,0.99994726 73.586535 0 1 -1.24167,-0.676603 0.9999472,0.99994726 73.586535 0 1 0.6766,-1.241674 z"
       id="path35" />
    <path
       style="fill:#ffd5d5;stroke-width:0.264553"
       d="m 125.00312,74.37719 a 4.9994401,4.9994401 0 1 0 6.68493,2.302641 4.9994401,4.9994401 0 0 0 -6.68493,-2.302641 z m 2.66368,5.51466 a 0.99993317,0.99993323 64.953904 0 1 1.32914,0.482561 0.99993317,0.99993323 64.953904 0 1 -0.48255,1.329142 0.99993317,0.99993323 64.953904 0 1 -1.32914,-0.482559 0.99993317,0.99993323 64.953904 0 1 0.48255,-1.329144 z"
       id="path36" />
    <path
       style="fill:#ffd5d5;stroke-width:0.264547"
       d="m 132.92872,69.863444 a 4.9993191,4.9993191 45 1 0 6.98097,1.119872 4.9993191,4.9993191 45 0 0 -6.98097,-1.119872 z m 3.57144,4.974908 a 0.99990898,0.99990904 55.061133 0 1 1.39225,0.247028 0.99990898,0.99990904 55.061133 0 1 -0.24702,1.39225 0.99990898,0.99990904 55.061133 0 1 -1.39226,-0.247024 0.99990898,0.99990904 55.061133 0 1 0.24703,-1.392254 z"
       id="path37" />
    <path
       style="fill:#ffd5d5;stroke-width:0.264536"
       d="m 139.37909,64.034388 a 4.9991167,4.9991167 0 1 0 7.03667,-0.685065 4.9991167,4.9991167 0 0 0 -7.03667,0.685065 z m 4.71501,3.907753 a 0.99986849,0.99986855 40.386931 0 1 1.40935,-0.113712 0.99986849,0.99986855 40.386931 0 1 0.11373,1.409355 0.99986849,0.99986855 40.386931 0 1 -1.40936,0.113718 0.99986849,0.99986855 40.386931 0 1 -0.11372,-1.409361 z"
       id="path38" />
    <path
       style="fill:#ffd5d5;stroke-width:0.264521"
       d="m 143.73768,56.843818 a 4.9988276,4.9988276 0 1 0 6.49338,-2.795385 4.9988276,4.9988276 0 0 0 -6.49338,2.795385 z m 5.6808,2.286027 a 0.99981067,0.99981073 22.655779 0 1 1.3077,-0.5375 0.99981067,0.99981073 22.655779 0 1 0.53751,1.307695 0.99981067,0.99981073 22.655779 0 1 -1.3077,0.537507 0.99981067,0.99981073 22.655779 0 1 -0.53751,-1.307702 z"
       id="path39" />
    <path
       id="path53-2"
       style="fill:#ffd5d5;stroke-width:0.264571"
       d="m 143.89473,49.994476 9.99939,0.0052 a 4.9997712,4.9997712 0 0 1 -4.58319,4.983159 4.9997712,4.9997712 0 0 1 -5.39915,-4.565613 4.9997712,4.9997712 0 0 1 -0.017,-0.422713 z m 8.08942,0.0067 -1.9513,0.0026 a 0.99999945,0.99999939 84.270639 0 0 1.07539,0.775664 0.99999945,0.99999939 84.270639 0 0 0.87591,-0.778247 z" />
  </g>
</svg>
